PathFileType	4	(X/Y/Z)	C:\Users\WrightLab\Desktop\Jo\P5V43.trc
DataRate	CameraRate	NumFrames	NumMarkers	Units	OrigDataRate	OrigDataStartFrame	OrigNumFrames
100.00	100.00	       12	19	mm	100.00	753	       860
Frame#	Time	Headset_Front			Headset_Back			Headset_Left			Headset_Right			Left_Shoulder			Right_Shoulder			Sternum			C7			Left Elbow			Right Elbow			Left Wrist			Right Wrist			Left ASIS			Right ASIS			S2			Left Knee			Right Knee			Left Ankle			Right Ankle			
		X1	Y1	Z1	X2	Y2	Z2	X3	Y3	Z3	X4	Y4	Z4	X5	Y5	Z5	X6	Y6	Z6	X7	Y7	Z7	X8	Y8	Z8	X9	Y9	Z9	X10	Y10	Z10	X11	Y11	Z11	X12	Y12	Z12	X13	Y13	Z13	X14	Y14	Z14	X15	Y15	Z15	X16	Y16	Z16	X17	Y17	Z17	X18	Y18	Z18	X19	Y19	Z19	

753	7.520	-125.25521	1502.89441	768.83801	-122.17635	1663.03101	906.48846	9.81085	1771.63745	860.22137				-38.10295	1552.40503	1123.20166	138.74074	1468.04089	752.85504	-23.61059	1346.02722	910.63336	165.48586	1552.28027	978.75482	-81.97327	1248.23352	1231.25134	219.00919	1173.10474	747.64880	-153.68033	1008.77972	1181.49768	65.60791	982.61823	718.75171	-104.03461	966.66968	1064.12341	34.35831	962.97931	814.45892	209.14665	1008.90460	1113.96533	-146.43611	544.52350	1115.84119	87.17576	517.07629	805.67590	-174.65089	168.61176	1232.38171	201.06796	124.75224	939.24896	
754	7.530	-127.05310	1502.95471	766.70013	-126.14670	1662.83679	904.62854	5.51794	1771.84741	860.89807				-47.16600	1552.18640	1122.74316	138.75941	1467.54675	759.83685	-27.78388	1345.64099	910.31647	159.74290	1552.55945	981.35730	-92.36270	1247.77002	1229.89832	218.56578	1173.38074	751.85522	-162.18735	1008.28296	1178.87000	66.08530	982.82745	720.50043	-110.00089	966.24463	1061.69482	33.58295	963.02057	815.14020	201.88284	1008.23840	1116.90076	-152.30743	543.82574	1116.12610	88.21881	517.41620	806.82800	-187.65199	167.28427	1228.90161	200.96446	125.05917	939.21747	
755	7.540	-129.32568	1503.07532	765.59363	-130.48988	1662.77612	902.88593	2.18613	1771.81604	861.31024				-55.04313	1551.70898	1122.04871	135.96854	1469.14221	759.04266	-31.37399	1345.63025	909.76471	153.64169	1553.38452	987.34711	-102.15027	1247.67407	1228.38171	217.88513	1173.73389	756.42554	-171.33424	1008.41772	1176.43335	66.81122	982.63544	721.75220	-114.12445	965.62476	1060.76660	33.06195	962.97522	815.36896	196.21587	1009.07098	1121.20630	-159.45943	544.15668	1115.42322	89.01831	517.61609	808.59814	-200.44606	166.14201	1225.35059	200.72815	125.44128	939.02368	
756	7.550	-130.59857	1502.49194	762.82739	-134.81401	1662.61755	901.07739	-1.91712	1772.12268	861.98798				-63.26857	1550.90918	1121.35388	135.16713	1469.30066	762.51038	-34.45310	1345.11975	910.25775	147.81494	1552.90723	988.90521	-111.66171	1247.14221	1226.68530	216.88852	1174.47852	760.90405	-180.09682	1007.97760	1174.28076	67.41721	983.06512	724.04047	-119.33700	964.86835	1058.54858	32.27801	963.00952	815.84741	189.20767	1008.79218	1124.56470	-167.41185	544.42169	1114.86340	89.61517	517.96179	809.65479	-212.90778	165.94247	1220.68237	200.78096	125.54979	939.01294	
757	7.560	-132.57843	1502.53772	761.17505	-139.10300	1662.39673	899.43207	-4.96874	1771.78308	862.47937				-72.11433	1550.61646	1120.62354	134.81949	1468.27466	768.38123	-38.44915	1344.57397	910.00153	141.85236	1552.48364	991.35883	-121.48989	1246.75525	1224.87878	216.26967	1174.72388	765.99377	-189.16135	1006.96497	1173.02344	67.76287	983.13702	725.20258	-126.56820	964.91583	1056.00146	31.36541	962.82404	816.33246	182.33234	1009.28333	1127.93298	-175.76408	544.43994	1113.26770	90.38955	517.81250	811.05640	-223.32626	164.18616	1217.60754	200.85185	125.72032	938.85992	
758	7.570	-134.53784	1502.73328	759.59631	-143.53374	1662.14502	897.70789	-9.23981	1771.65112	863.42218				-80.31054	1550.26746	1119.88965	132.53503	1469.18933	768.95068	-42.12673	1344.61133	909.61713	135.54659	1553.68335	996.88721	-131.48940	1246.24817	1223.31555	215.48140	1175.43848	770.11139	-197.33394	1006.04272	1168.97717	67.87681	983.76160	727.71387	-131.93423	964.36395	1053.65125	30.12723	962.98322	817.34186	176.28415	1009.05237	1131.45935	-184.26953	544.33893	1110.34351	90.84718	518.48108	812.27826	-233.23668	162.88594	1213.84021	200.81717	125.80567	938.98749	
759	7.580	-136.31706	1502.57776	757.77954	-148.27293	1662.05566	896.18475	-13.23263	1771.68640	864.30652				-88.84106	1549.50757	1118.85791	131.65350	1468.85120	775.50336	-46.19681	1343.94519	909.38879	129.80679	1553.36938	999.13947	-141.73055	1245.83679	1221.79590	214.26558	1175.38708	775.52386	-205.85716	1005.38727	1166.51929	68.77272	983.49030	728.64056	-136.76898	963.44647	1051.49133	29.45968	962.94946	817.80627	169.87639	1010.16797	1135.25281	-191.61615	543.45544	1108.95361	91.84048	518.39014	813.54926	-243.12209	161.26146	1209.75464	200.99425	125.91538	938.80731	
760	7.590	-138.17415	1502.36768	756.36609	-152.95905	1661.78198	894.58203	-17.34673	1771.45740	865.32343				-97.39431	1548.72449	1118.20056	128.80589	1470.01453	775.58868	-49.96594	1343.82751	909.12848	123.11317	1553.12280	1001.65564	-149.88997	1245.09241	1219.81750	213.09477	1176.15906	779.97833	-214.14058	1004.77747	1163.42603	68.94782	984.02063	731.20233	-142.02888	962.84741	1049.28735	28.57814	962.85254	818.20709	162.17905	1010.22937	1139.71692	-199.25850	542.41040	1107.37195	92.31723	519.08453	814.45422	-252.20755	160.01945	1205.81836	200.98949	126.09859	938.84308	
761	7.600	-140.19841	1502.34119	754.87213	-157.02066	1661.14099	893.00775	-22.24313	1771.67664	866.48737				-106.40213	1548.19189	1117.18225	127.74898	1469.83826	782.11786	-54.06516	1343.34302	909.17706	116.29690	1553.56860	1005.13202	-159.66365	1244.12695	1218.11011	211.59189	1176.82324	784.51086	-221.65414	1003.23114	1162.50488	69.12723	983.99274	733.72968	-147.11263	961.97937	1047.08228	27.57492	962.77411	818.52460	155.35272	1009.84143	1142.88049	-206.27258	541.11578	1106.05151	93.13530	519.37024	815.99811	-261.03323	158.72771	1202.84778	200.92566	126.35980	939.02753	
762	7.610	-142.21802	1502.14734	753.78564	-161.58618	1660.80493	891.59778	-25.54881	1771.02625	867.45099				-114.44882	1547.25891	1116.14026	125.15309	1470.56750	783.24194	-57.98667	1343.12842	909.02533	110.32764	1556.99207	1016.96387	-169.09642	1243.13269	1216.22852	210.28984	1177.43054	789.53888	-230.63649	1003.58575	1154.89514	68.96195	984.25494	736.28516	-152.69598	961.15515	1045.05579	25.90508	963.07520	819.86700	148.04790	1010.14966	1146.16943	-213.40771	540.33649	1104.32385	93.83060	519.31567	816.93030	-268.67850	156.80559	1199.72900	200.96272	126.67131	939.02716	
763	7.620	-144.01859	1502.03845	752.40143	-166.29660	1660.31506	890.20422	-30.79388	1771.17139	868.79736				-124.04076	1546.73450	1115.37805	122.62871	1471.16394	786.82007	-62.22049	1342.80969	909.06952	103.70401	1556.43640	1020.28827	-179.14108	1242.33594	1214.07947	208.91547	1178.20496	794.20917	-238.55682	1001.82605	1155.54773	68.14475	984.54401	738.90570	-157.80611	960.56439	1042.73547	23.91873	963.76599	819.56720	140.77489	1010.09839	1149.58545	-219.98041	539.32886	1102.43115	94.92181	519.59119	818.10785	-276.40393	156.16817	1195.88586	200.87617	126.78192	939.14764	
764	7.630	-145.97157	1501.68384	751.12024	-171.01653	1659.94104	888.96613	-35.13596	1770.82849	870.10309				-131.98755	1545.56750	1114.38684	120.44179	1471.20142	790.59045	-66.33121	1342.35547	909.04761	96.82124	1556.26489	1023.80963	-188.87790	1241.31006	1212.21448	206.84837	1178.52295	799.62598	-247.94981	1001.43866	1152.11487	67.93421	984.72571	741.54462	-163.73723	959.92267	1040.88916	22.37287	963.80719	820.56970	134.01518	1010.17584	1153.38269	-226.65286	537.80280	1100.70605	95.79491	519.70001	819.52911	-282.47333	154.34178	1193.75684	201.06610	127.26258	939.22565	
